<?xml version="1.0" standalone="no"?>
<!DOCTYPE svg PUBLIC "-//W3C//DTD SVG 20010904//EN"
 "http://www.w3.org/TR/2001/REC-SVG-20010904/DTD/svg10.dtd">
<svg version="1.0" xmlns="http://www.w3.org/2000/svg"
 width="900.000000pt" height="906.000000pt" viewBox="0 0 900.000000 906.000000"
 preserveAspectRatio="xMidYMid meet">
<metadata>
Created by potrace 1.10, written by Peter Selinger 2001-2011
</metadata>
<g transform="translate(0.000000,906.000000) scale(0.100000,-0.100000)"
fill="#000000" stroke="none">
<path d="M4363 9041 c-2 -20 -111 -209 -203 -351 -62 -96 -74 -116 -99 -167
-11 -24 -31 -57 -44 -75 -14 -18 -39 -61 -57 -96 -28 -56 -31 -69 -25 -115 4
-29 14 -60 23 -69 30 -34 123 -69 195 -72 38 -2 73 -8 79 -14 6 -6 9 -173 8
-448 -1 -497 -3 -512 -63 -544 -20 -11 -49 -20 -64 -20 -16 0 -46 -7 -68 -14
-22 -8 -67 -17 -100 -21 -59 -7 -150 -31 -170 -45 -5 -4 -30 -10 -54 -13 -24
-3 -66 -17 -93 -31 -27 -14 -58 -26 -68 -26 -16 0 -106 -40 -170 -76 -14 -7
-48 -25 -77 -38 -28 -14 -54 -30 -58 -35 -3 -6 -12 -11 -20 -11 -21 0 -208
-118 -279 -176 -158 -130 -432 -401 -489 -484 -9 -14 -37 -52 -62 -85 -24 -33
-59 -84 -77 -114 -18 -30 -41 -66 -50 -80 -10 -14 -29 -51 -43 -81 -14 -30
-29 -62 -34 -70 -23 -36 -81 -159 -81 -172 0 -8 -6 -23 -14 -34 -18 -23 -11
-127 10 -161 8 -13 38 -35 67 -49 42 -22 70 -28 148 -32 82 -4 104 -1 158 18
75 28 128 78 172 165 17 33 42 81 57 106 15 26 38 67 51 90 30 54 124 178 182
240 24 26 71 75 103 110 33 35 89 89 125 119 36 31 78 68 93 83 15 15 32 27
38 27 6 0 30 14 53 30 106 77 176 115 352 195 72 33 261 92 320 100 28 4 57
13 65 20 21 17 88 12 108 -9 15 -15 18 -69 25 -574 4 -306 12 -573 17 -593 26
-96 133 -159 273 -161 69 0 78 2 130 35 31 20 60 44 65 54 27 53 32 138 34
648 3 590 2 588 63 599 19 4 43 3 52 -3 10 -5 50 -12 88 -16 39 -4 82 -14 97
-21 15 -8 37 -14 50 -14 13 0 32 -7 42 -15 11 -8 28 -15 38 -15 20 0 49 -13
198 -84 58 -28 123 -63 144 -78 21 -16 43 -28 49 -28 5 0 26 -13 47 -30 21
-16 41 -30 44 -30 3 0 40 -28 81 -62 42 -35 92 -77 113 -93 61 -50 96 -86 171
-175 40 -47 80 -94 90 -105 44 -50 201 -297 201 -316 0 -24 77 -133 123 -174
58 -53 84 -59 207 -47 122 12 197 40 227 83 38 55 39 88 3 191 -17 51 -35 95
-39 98 -3 3 -33 60 -66 128 -32 67 -62 122 -67 122 -4 0 -17 18 -28 41 -23 43
-91 142 -137 198 -15 18 -33 42 -39 53 -14 26 -103 124 -194 216 -243 244
-480 403 -825 552 -90 39 -193 75 -245 85 -19 4 -47 13 -61 21 -14 7 -63 20
-110 28 -164 31 -224 45 -256 60 -63 33 -61 18 -64 514 -2 336 0 455 9 464 6
6 59 15 117 18 101 7 106 8 148 43 41 33 45 41 51 96 6 48 3 68 -12 98 -26 55
-72 133 -99 169 -13 17 -23 34 -23 39 0 4 -15 31 -32 59 -36 56 -44 69 -84
136 -15 25 -33 52 -40 60 -7 9 -30 47 -50 85 -20 39 -50 85 -65 103 -16 18
-29 44 -29 57 0 24 -3 25 -60 25 -69 0 -71 -5 -35 -65 14 -22 29 -49 35 -60 6
-11 19 -33 30 -50 11 -16 24 -39 30 -50 6 -11 18 -32 28 -46 9 -15 31 -50 47
-78 17 -28 33 -51 38 -51 4 0 7 -5 7 -11 0 -6 13 -30 28 -53 15 -22 31 -48 35
-56 4 -8 16 -28 27 -45 11 -16 23 -37 27 -45 4 -8 26 -43 50 -78 24 -35 43
-66 43 -69 0 -3 13 -22 28 -42 52 -66 47 -99 -12 -78 -24 8 -560 18 -993 17
-21 0 -15 29 13 58 14 15 44 58 67 95 23 38 50 80 59 95 10 15 22 36 28 47 12
24 26 46 63 98 15 22 27 46 27 53 0 7 4 14 8 16 5 2 15 15 23 29 8 15 41 70
74 123 33 53 65 105 70 114 6 10 22 38 38 64 15 26 27 51 27 57 0 7 -25 11
-63 11 -55 0 -63 -2 -64 -19z m265 -984 l33 -2 0 -530 c1 -392 4 -532 12 -537
7 -4 46 -8 88 -8 42 0 89 -5 105 -10 16 -6 58 -14 94 -20 105 -15 308 -70 405
-110 17 -7 39 -16 50 -21 112 -46 294 -134 350 -170 17 -10 37 -22 45 -26 8
-3 31 -19 51 -35 20 -15 40 -28 44 -28 13 0 172 -127 244 -195 101 -95 126
-120 196 -199 33 -37 70 -79 83 -92 12 -14 22 -28 22 -32 0 -4 18 -27 40 -52
22 -25 40 -49 40 -54 0 -4 13 -25 28 -45 16 -20 32 -43 35 -51 4 -8 16 -28 27
-45 11 -16 24 -39 30 -50 6 -11 22 -40 35 -64 14 -24 25 -49 25 -54 0 -6 6
-18 13 -26 8 -9 30 -56 51 -106 20 -49 44 -103 52 -118 29 -52 15 -60 -89 -53
-53 4 -115 2 -147 -4 -98 -19 -99 -19 -124 50 -3 8 -10 22 -15 30 -5 8 -25 49
-45 90 -20 41 -42 84 -49 94 -25 41 -141 212 -151 223 -6 6 -22 26 -36 45
-118 157 -439 439 -570 501 -8 4 -28 16 -45 27 -46 29 -188 98 -280 136 -16 6
-47 19 -68 28 -21 9 -46 16 -56 16 -10 0 -32 7 -47 15 -16 8 -41 15 -55 15
-15 0 -43 7 -62 15 -20 8 -49 15 -65 15 -16 0 -46 7 -65 15 -20 8 -57 15 -81
15 -25 0 -57 5 -71 12 -38 17 -49 0 -46 -69 9 -167 5 -1293 -4 -1294 -18 -2
-309 1 -311 4 -1 1 -5 304 -9 672 l-6 670 -72 3 c-45 2 -89 -3 -118 -13 -26
-8 -61 -15 -77 -15 -16 0 -49 -7 -72 -15 -23 -8 -52 -15 -64 -15 -11 0 -34 -7
-50 -15 -15 -8 -34 -15 -42 -15 -7 0 -28 -6 -46 -14 -18 -8 -53 -22 -78 -31
-46 -18 -235 -110 -273 -133 -71 -42 -190 -123 -202 -136 -5 -6 -32 -29 -60
-51 -104 -82 -282 -260 -357 -355 -23 -30 -45 -57 -49 -60 -15 -12 -109 -156
-109 -167 0 -7 -4 -13 -9 -13 -5 0 -14 -12 -20 -27 -6 -16 -22 -48 -35 -73
-13 -25 -38 -74 -54 -109 l-30 -64 -181 -2 c-124 -1 -181 1 -181 9 0 6 20 51
44 101 25 49 61 124 81 165 21 41 52 102 71 135 18 33 37 67 41 75 14 30 118
177 172 245 57 72 279 299 364 373 57 49 203 162 211 162 3 0 24 12 48 28 64
41 78 49 133 77 28 14 57 29 65 34 28 15 144 68 190 85 25 10 58 24 73 32 16
8 36 14 45 14 9 0 30 7 46 15 15 8 37 15 48 15 11 0 34 6 51 14 59 25 276 66
384 73 129 7 118 -45 120 559 1 283 4 518 7 522 3 6 190 6 284 -1z"/>
<path d="M1724 5141 c-41 -25 -92 -88 -100 -124 -3 -16 -3 -49 1 -73 5 -37 17
-55 81 -120 66 -68 74 -80 74 -115 0 -30 -5 -42 -25 -55 -25 -17 -26 -16 -83
44 -40 43 -69 63 -97 71 -24 7 -152 11 -322 11 -192 0 -284 3 -289 11 -3 6
-10 55 -14 109 -8 106 -26 150 -77 190 -37 29 -115 27 -170 -4 -23 -14 -53
-28 -65 -32 -13 -3 -48 -24 -78 -45 -31 -22 -61 -39 -67 -39 -6 0 -13 -4 -15
-8 -1 -4 -47 -34 -101 -66 -54 -32 -120 -72 -147 -90 -26 -17 -83 -51 -124
-76 -42 -25 -83 -50 -92 -55 -11 -8 -14 -25 -12 -67 l3 -56 159 96 c87 53 170
105 185 114 14 10 35 22 46 28 11 6 34 19 50 30 17 11 37 23 45 27 8 4 34 20
56 35 23 15 45 28 48 28 3 0 35 20 72 45 36 25 68 45 71 45 3 0 22 13 42 28
69 55 93 48 80 -21 -5 -23 -8 -256 -8 -517 0 -468 0 -475 -20 -478 -11 -2 -33
9 -50 24 -17 15 -39 32 -50 38 -10 6 -62 38 -115 71 -53 33 -104 65 -114 70
-9 6 -36 23 -59 38 -24 15 -47 27 -53 27 -5 0 -10 3 -10 8 0 4 -23 21 -51 37
-28 17 -63 38 -78 47 -14 10 -35 22 -46 28 -28 14 -57 33 -73 48 -7 6 -18 12
-23 12 -6 0 -25 11 -42 24 -60 44 -67 42 -67 -19 0 -51 2 -56 32 -71 17 -9 40
-25 51 -35 12 -10 26 -19 31 -19 6 0 45 -24 86 -53 96 -67 244 -157 259 -157
6 0 11 -4 11 -9 0 -5 13 -14 29 -21 16 -6 37 -19 47 -29 11 -9 33 -24 49 -33
17 -9 57 -30 90 -48 54 -29 66 -32 119 -27 39 4 65 12 77 24 31 32 69 139 69
193 0 41 5 56 25 75 24 25 59 33 69 16 3 -5 110 -7 238 -6 242 3 329 16 371
52 26 24 63 96 71 137 9 45 18 51 47 27 22 -18 24 -27 29 -187 7 -182 15 -213
66 -253 39 -31 75 -27 111 12 40 42 51 80 59 212 9 150 14 159 111 180 117 25
143 36 185 80 42 43 47 69 19 102 -30 36 -85 53 -172 52 -84 -1 -109 9 -109
42 0 21 40 41 140 69 105 30 157 56 211 107 88 82 98 124 47 192 -31 40 -35
42 -72 38 -22 -3 -72 -21 -110 -41 -83 -41 -184 -76 -222 -76 -18 0 -40 14
-68 42 -74 76 -131 108 -190 108 -32 0 -62 -7 -82 -19z m105 -47 c38 -8 111
-76 111 -104 0 -12 7 -34 15 -50 13 -25 21 -30 53 -30 20 1 55 7 77 15 22 8
46 15 53 15 31 0 186 75 218 105 51 47 104 46 104 -3 0 -44 -71 -104 -170
-145 -78 -33 -250 -77 -297 -77 -23 0 -23 -2 -23 -115 l0 -115 58 0 c31 0 89
7 127 15 39 8 96 15 128 15 53 0 57 -2 57 -23 0 -12 -10 -29 -22 -37 -35 -23
-175 -48 -274 -49 -47 -1 -63 -5 -68 -17 -3 -9 -6 -96 -6 -195 0 -211 -8 -242
-63 -237 l-32 3 3 225 2 225 -42 21 c-32 15 -44 27 -46 47 -3 22 1 27 25 32
55 12 58 16 61 108 3 82 2 86 -24 106 -15 12 -38 21 -53 21 -31 0 -91 51 -114
96 -15 29 -15 34 1 68 17 35 75 86 98 86 6 0 26 -3 43 -6z m-214 -574 l0 -152
-320 1 c-176 0 -325 1 -330 1 -12 0 -15 291 -3 300 3 3 152 4 330 3 l323 -2 0
-151z"/>
<path d="M1766 4991 c-15 -23 40 -71 81 -71 22 0 26 26 8 54 -13 19 -26 26
-51 26 -18 0 -35 -4 -38 -9z"/>
<path d="M4555 5121 c-52 -33 -106 -96 -116 -137 -13 -54 -1 -138 25 -177 26
-39 90 -77 131 -77 54 -1 55 -4 71 -201 23 -301 34 -355 89 -431 58 -79 97
-102 180 -106 81 -4 114 8 178 64 20 19 44 34 53 34 9 0 37 -15 63 -34 68 -50
123 -70 177 -62 100 13 171 77 215 192 34 88 39 129 48 406 8 224 9 229 34
262 17 22 38 36 60 40 73 14 114 99 74 157 -53 79 -176 105 -262 55 -97 -58
-121 -135 -130 -431 -6 -198 -20 -337 -36 -367 -5 -10 -21 -18 -34 -18 -55 0
-85 125 -85 359 0 172 -8 203 -62 245 -46 34 -68 33 -110 -7 -59 -55 -61 -66
-68 -277 -8 -206 -22 -280 -61 -316 -19 -17 -21 -17 -40 3 -32 31 -40 89 -49
358 -10 303 -18 337 -92 407 -77 73 -189 99 -253 59z m193 -88 c61 -46 70 -81
77 -306 8 -295 23 -454 47 -502 29 -58 47 -75 81 -75 35 0 92 55 122 117 10
21 23 47 29 58 7 13 12 111 14 265 2 228 4 246 22 261 14 12 29 15 51 10 l32
-6 1 -240 c2 -255 7 -297 48 -360 72 -112 129 -133 178 -65 39 55 51 133 60
385 5 132 14 281 20 330 11 83 14 92 46 121 24 23 48 33 83 38 54 7 70 3 124
-32 30 -20 37 -31 37 -57 0 -44 -7 -47 -48 -24 -68 36 -115 21 -152 -50 -8
-15 -15 -116 -20 -300 -9 -296 -15 -347 -56 -429 -36 -72 -81 -104 -150 -110
-45 -4 -60 -1 -88 19 -40 27 -91 101 -100 146 -4 17 -14 37 -21 43 -15 12 -35
6 -35 -11 0 -20 -62 -135 -87 -161 -51 -53 -166 -56 -218 -5 -77 77 -106 217
-112 547 -5 302 -13 331 -90 332 -52 0 -63 -7 -63 -40 0 -18 12 -37 40 -62 32
-28 39 -40 34 -58 -23 -81 -164 16 -164 113 0 55 52 124 105 138 40 11 120 -5
153 -30z"/>
<path d="M8120 5044 c-44 -40 -70 -107 -70 -181 0 -88 23 -83 -353 -83 -311 0
-337 -1 -395 -21 l-62 -21 -34 21 c-52 33 -88 28 -129 -18 -39 -44 -43 -61
-51 -228 -3 -80 -9 -113 -28 -155 -35 -76 -74 -118 -108 -118 -71 0 -90 61
-90 282 0 108 -4 148 -16 174 -21 44 -69 84 -99 84 -27 0 -92 -60 -106 -98
-14 -35 -12 -320 2 -409 15 -95 44 -155 101 -209 73 -69 84 -74 175 -74 69 0
81 -2 77 -15 -9 -22 -70 -34 -149 -29 -89 5 -124 -7 -165 -56 -23 -28 -51 -47
-89 -61 -84 -30 -160 -110 -211 -219 -42 -92 -137 -242 -203 -320 -60 -71
-153 -176 -192 -215 -93 -93 -311 -269 -358 -288 -11 -4 -36 -21 -57 -37 -21
-17 -43 -30 -50 -30 -6 0 -32 -12 -58 -27 -26 -15 -67 -35 -92 -44 -172 -64
-279 -99 -328 -109 -31 -6 -69 -16 -84 -22 -16 -6 -47 -7 -73 -4 -36 6 -45 11
-45 28 0 12 -5 18 -13 15 -10 -4 -13 21 -15 107 -2 61 -3 120 -4 131 0 11 0
202 1 425 1 372 -1 409 -18 458 -21 60 -61 108 -108 128 -38 16 -191 19 -244
4 -48 -14 -126 -96 -133 -141 -3 -19 -8 -266 -12 -549 -4 -283 -7 -528 -8
-543 -1 -41 -41 -70 -86 -63 -195 29 -335 76 -545 182 -182 92 -243 131 -382
245 -225 185 -419 427 -539 676 -42 86 -114 169 -169 194 -31 15 -65 19 -157
19 -129 0 -155 -6 -207 -52 -36 -31 -69 -112 -50 -123 4 -3 8 -18 7 -33 -1
-46 79 -236 147 -347 13 -22 29 -50 35 -63 22 -51 189 -283 271 -377 85 -98
272 -280 321 -313 14 -9 64 -46 112 -82 149 -113 329 -220 367 -220 10 0 22
-7 26 -15 5 -8 33 -24 62 -35 29 -10 58 -23 64 -29 19 -15 208 -81 234 -81 7
0 25 -7 38 -16 14 -9 35 -14 47 -11 13 4 29 0 38 -8 9 -8 47 -19 85 -24 86
-12 200 -38 238 -53 54 -21 55 -35 58 -540 l2 -463 -100 -11 -100 -11 -51 -49
c-47 -45 -52 -54 -52 -92 0 -56 15 -90 108 -243 42 -71 97 -163 122 -204 25
-42 83 -134 129 -205 l85 -130 53 0 c29 0 53 3 53 6 0 6 -71 125 -80 134 -7 7
-29 42 -37 60 -4 8 -26 43 -49 77 -23 34 -45 71 -49 82 -3 12 -11 21 -16 21
-5 0 -9 6 -9 13 0 8 -13 32 -28 53 -16 21 -31 46 -35 54 -4 8 -16 29 -27 45
-11 17 -24 39 -30 50 -27 51 -90 147 -112 172 -11 11 -18 31 -16 42 l3 22 515
0 c364 1 515 -2 518 -10 2 -6 -9 -28 -25 -49 -35 -45 -81 -114 -99 -150 -3 -7
-26 -43 -50 -79 -24 -37 -44 -73 -44 -80 0 -7 -5 -13 -10 -13 -6 0 -14 -8 -17
-17 -4 -10 -18 -36 -32 -58 -36 -56 -49 -77 -61 -100 -6 -11 -18 -32 -28 -46
-9 -15 -41 -67 -71 -115 -30 -49 -61 -95 -69 -102 -13 -10 -4 -12 51 -12 37 0
67 4 67 9 0 5 22 42 49 83 74 111 137 210 151 238 7 14 33 57 58 95 25 39 55
86 67 105 12 19 30 49 41 65 55 89 82 183 68 241 -3 12 -16 27 -29 34 -13 7
-25 20 -28 29 -6 22 -88 41 -182 41 -54 0 -76 4 -86 16 -11 13 -13 103 -10
462 2 246 7 449 11 452 5 3 10 18 12 34 2 22 11 31 43 43 70 26 148 45 215 53
36 4 97 18 135 29 39 12 86 26 105 31 19 5 60 19 90 31 30 11 71 26 90 32 19
6 38 15 41 20 4 5 30 18 59 28 29 10 60 25 70 34 9 8 23 15 31 15 8 0 23 6 34
14 11 7 52 30 90 51 39 20 79 45 90 54 11 10 40 31 65 47 51 33 158 109 180
129 8 8 61 54 116 104 114 101 306 319 378 429 26 40 53 78 60 85 30 30 226
412 226 441 0 22 38 101 57 118 10 9 29 19 43 23 78 24 186 132 218 218 12 32
26 103 32 160 14 146 21 170 54 186 23 11 36 11 70 1 60 -18 589 -18 610 0 13
10 19 10 32 -1 28 -23 41 -63 47 -145 6 -92 21 -127 72 -173 31 -27 43 -31 95
-31 32 0 62 4 65 10 3 5 30 21 58 35 29 13 81 44 117 68 36 24 72 46 80 49 8
3 52 30 96 59 45 30 95 62 110 71 16 10 49 31 74 47 83 54 150 91 165 91 12 0
15 14 15 65 0 42 -4 65 -11 65 -12 0 -80 -38 -89 -50 -3 -4 -12 -9 -20 -13 -8
-4 -49 -29 -90 -56 -41 -27 -106 -69 -143 -93 -38 -23 -79 -50 -92 -58 -13 -8
-56 -35 -96 -60 -39 -25 -83 -53 -98 -62 -14 -10 -33 -21 -41 -25 -18 -8 -73
-45 -80 -54 -11 -13 -50 -29 -69 -29 -21 0 -21 1 -21 520 0 590 -7 550 84 481
28 -21 84 -58 124 -82 40 -24 85 -52 100 -61 15 -10 36 -22 47 -28 28 -14 57
-33 73 -47 7 -7 17 -13 22 -13 5 0 37 -19 72 -42 91 -61 101 -67 118 -75 8 -4
17 -9 20 -13 3 -4 38 -26 78 -50 40 -23 75 -46 78 -51 3 -5 12 -9 20 -9 11 0
14 16 14 70 0 68 -1 70 -25 70 -13 0 -50 17 -81 38 -31 20 -68 43 -83 51 -14
7 -55 33 -91 56 -94 62 -217 135 -226 135 -4 0 -17 9 -28 19 -12 11 -41 31
-66 45 -116 64 -145 76 -192 76 -41 0 -54 -5 -88 -36z m-1395 -339 c11 -28 14
-82 14 -245 -1 -194 1 -213 20 -243 22 -35 64 -70 98 -81 49 -16 155 69 210
167 28 51 28 54 30 236 2 194 3 201 49 201 44 0 48 -18 39 -218 -5 -103 -7
-246 -6 -317 3 -127 -10 -243 -28 -254 -4 -3 -11 -15 -15 -27 -11 -36 -83
-101 -142 -129 -50 -24 -66 -26 -123 -22 -127 10 -231 56 -231 102 0 21 5 25
30 25 17 0 47 -9 67 -20 30 -16 57 -20 129 -20 92 0 92 0 141 38 48 39 93 111
93 150 0 12 5 41 12 65 13 50 5 97 -17 97 -9 0 -19 -10 -24 -23 -13 -33 -65
-80 -117 -107 -40 -19 -56 -22 -112 -17 -80 8 -122 37 -165 118 l-29 54 -6
237 c-5 255 -3 268 44 268 18 0 28 -9 39 -35z m1305 -35 c3 0 5 -67 5 -150 0
-82 -2 -150 -5 -150 -9 -1 -725 -1 -736 0 -13 0 -16 291 -3 300 5 3 654 4 739
0z m-5511 -970 c10 -19 35 -69 55 -110 20 -41 41 -82 46 -90 5 -8 26 -44 46
-80 21 -36 42 -69 46 -75 4 -5 42 -57 85 -115 71 -98 341 -380 363 -380 6 0
18 -8 28 -17 24 -25 99 -83 105 -83 3 0 34 -19 69 -43 35 -24 83 -53 108 -66
25 -12 52 -26 60 -31 8 -5 22 -11 30 -14 8 -3 22 -10 30 -15 8 -5 33 -17 55
-26 22 -10 52 -24 67 -32 14 -7 33 -13 41 -13 9 0 28 -6 44 -14 43 -21 94 -38
133 -43 19 -3 40 -9 46 -14 6 -5 37 -13 70 -18 32 -5 80 -15 105 -21 25 -6 77
-10 114 -8 l69 3 3 660 4 660 154 1 c85 0 158 -2 162 -5 4 -3 8 -305 8 -671 0
-659 0 -665 20 -662 11 2 52 7 90 11 75 9 142 24 216 47 26 8 55 14 65 14 11
0 32 7 48 15 15 8 37 15 47 15 18 0 66 18 122 46 16 8 33 14 38 14 13 0 205
95 244 120 17 11 37 23 45 27 23 10 75 47 78 56 2 4 10 7 18 7 8 0 17 7 20 15
4 8 11 15 18 15 6 0 27 15 47 33 20 17 58 50 85 72 51 43 192 182 259 256 78
84 225 293 225 317 0 7 4 12 9 12 5 0 14 12 20 28 6 15 15 34 20 42 5 8 12 22
15 30 3 8 10 22 15 30 5 8 19 35 30 60 39 84 27 80 209 73 145 -5 162 -8 167
-24 4 -11 0 -31 -9 -46 -8 -16 -25 -50 -37 -78 -44 -100 -168 -345 -180 -355
-3 -3 -16 -23 -29 -45 -61 -101 -216 -291 -330 -405 -142 -141 -166 -162 -295
-258 -38 -28 -74 -55 -80 -60 -5 -4 -17 -11 -25 -15 -8 -4 -28 -16 -45 -27
-16 -11 -39 -24 -50 -30 -11 -6 -47 -26 -80 -45 -60 -33 -119 -63 -185 -91
-19 -9 -48 -22 -63 -30 -16 -8 -33 -14 -39 -14 -5 0 -24 -6 -41 -14 -93 -41
-272 -89 -402 -107 -38 -5 -77 -12 -85 -16 -8 -4 -55 -9 -105 -13 l-90 -5 -2
-540 -3 -540 -137 -3 c-76 -1 -148 0 -160 3 l-22 5 -3 519 c-4 611 7 561 -120
561 -44 0 -88 4 -98 10 -10 5 -44 12 -76 16 -33 3 -68 10 -79 14 -11 5 -42 14
-70 19 -75 15 -179 47 -252 78 -17 7 -36 13 -41 13 -6 0 -23 6 -39 14 -15 8
-44 21 -63 30 -66 28 -185 88 -215 107 -16 10 -39 23 -50 28 -11 5 -37 21 -58
35 -21 14 -40 26 -43 26 -8 0 -159 116 -249 191 -86 71 -215 203 -280 284 -22
28 -47 57 -56 67 -22 22 -138 192 -159 233 -6 11 -19 34 -30 50 -17 27 -120
232 -140 280 -5 11 -22 50 -39 86 -50 106 -59 100 145 97 l175 -3 18 -35z"/>
<path d="M2701 4794 c-101 -27 -212 -133 -245 -234 -35 -105 -26 -280 19 -375
31 -66 102 -137 172 -171 73 -36 177 -39 268 -9 76 25 178 122 219 208 37 79
45 76 87 -27 27 -66 95 -148 143 -173 49 -26 165 -21 254 10 l72 26 56 -26
c65 -29 90 -24 145 33 18 19 40 34 49 34 8 0 37 -18 64 -40 56 -46 83 -50 124
-15 41 34 62 102 62 196 0 102 24 201 61 255 35 51 55 64 103 64 51 0 79 16
110 63 29 46 29 73 -3 116 -50 70 -137 85 -243 42 -56 -22 -59 -23 -99 -7 -44
18 -45 17 -101 -27 -35 -27 -48 -93 -49 -236 0 -171 -12 -291 -30 -302 -43
-26 -63 73 -56 287 2 94 0 180 -5 194 -15 41 -79 100 -108 100 -38 0 -96 -57
-109 -108 -7 -23 -16 -91 -21 -150 -12 -133 -28 -189 -70 -242 -29 -36 -37
-41 -68 -38 -63 5 -73 38 -82 251 -4 100 -11 191 -15 202 -16 42 -68 85 -101
85 -51 0 -114 -74 -114 -134 0 -14 -5 -37 -11 -52 l-10 -28 -42 47 c-23 26
-50 59 -61 73 -27 38 -118 92 -183 109 -70 18 -112 18 -182 -1z m198 -71 c3
-4 23 -17 43 -27 50 -25 101 -82 128 -142 20 -43 22 -60 18 -168 -5 -139 -18
-173 -90 -243 -82 -79 -171 -106 -270 -83 -64 16 -91 32 -141 84 -69 70 -82
113 -82 256 1 125 1 125 35 180 53 84 115 133 195 154 28 7 157 -1 164 -11z
m442 1 c11 -13 14 -67 14 -243 0 -202 2 -230 19 -259 19 -36 89 -92 113 -92
59 0 179 109 205 186 10 31 19 101 23 189 4 77 10 160 14 185 6 44 7 45 41 45
34 0 35 -1 40 -46 3 -25 2 -84 -1 -130 -4 -46 -8 -142 -8 -214 l-1 -130 35
-39 c40 -45 47 -89 16 -106 -56 -30 -111 8 -111 77 0 37 -3 43 -22 43 -12 0
-35 -16 -54 -39 -19 -21 -55 -51 -80 -66 -41 -24 -54 -27 -120 -23 l-74 3 -49
54 c-68 73 -79 130 -82 401 -1 113 -1 208 0 213 2 14 69 7 82 -9z m766 0 c3
-9 7 -35 7 -57 1 -54 28 -73 53 -37 16 23 48 55 88 89 10 7 37 16 61 19 37 4
51 0 84 -23 33 -23 40 -33 40 -61 0 -53 -48 -71 -90 -34 -63 55 -136 -3 -204
-161 -11 -25 -18 -90 -23 -215 l-8 -179 -39 0 c-35 0 -40 3 -48 30 -5 18 -4
80 3 150 6 66 9 199 7 295 -1 96 1 181 5 188 12 18 57 15 64 -4z"/>
<path d="M2723 4628 c-28 -18 -61 -49 -74 -68 -13 -19 -27 -37 -31 -40 -11 -9
-38 -94 -38 -123 0 -16 7 -53 16 -83 18 -61 90 -149 140 -170 35 -14 93 -9
135 12 68 34 139 153 139 233 0 46 -27 138 -49 170 -25 35 -85 81 -105 81 -8
0 -18 5 -21 10 -12 19 -61 10 -112 -22z m140 -93 c40 -38 60 -84 60 -140 0
-59 -20 -102 -63 -139 -50 -41 -91 -38 -142 11 -42 41 -57 90 -46 153 9 52 31
86 78 118 43 29 79 28 113 -3z"/>
<path d="M6105 4795 c-5 -2 -29 -9 -52 -15 -55 -14 -154 -96 -189 -156 -53
-90 -70 -342 -29 -429 57 -120 136 -188 233 -199 50 -6 73 -2 152 24 l93 30
58 -26 c58 -26 58 -26 96 -8 43 21 83 75 83 111 0 13 -8 40 -19 61 -36 73 -45
158 -30 321 l12 148 -26 45 c-37 64 -70 83 -142 84 -33 1 -98 4 -145 7 -47 4
-89 5 -95 2z m167 -91 c46 -29 65 -30 73 -3 4 11 18 25 32 32 22 10 27 8 44
-13 21 -27 21 -50 -1 -250 -20 -181 0 -288 59 -323 37 -21 38 -33 9 -64 -22
-23 -70 -31 -96 -15 -7 5 -18 37 -26 72 -7 35 -17 65 -24 68 -6 2 -21 -12 -34
-31 -50 -73 -128 -117 -208 -117 -98 0 -182 82 -220 216 -22 74 2 246 43 310
24 38 99 114 113 114 3 0 20 7 37 15 64 29 143 24 199 -11z"/>
<path d="M6115 4643 c-31 -8 -105 -92 -133 -152 -62 -135 17 -351 129 -351 44
0 87 29 148 100 l58 67 7 109 c8 145 1 173 -49 200 -41 22 -124 36 -160 27z
m94 -103 c30 -16 44 -65 37 -126 -8 -65 -15 -82 -63 -135 -22 -24 -44 -39 -59
-39 -38 0 -72 46 -80 107 -15 126 81 239 165 193z"/>
</g>
</svg>
